<?xml version="1.0" encoding="UTF-8" standalone="no"?>
<!-- Created with Inkscape (http://www.inkscape.org/) -->

<svg
   width="210mm"
   height="297mm"
   viewBox="0 0 210 297"
   version="1.1"
   id="svg1"
   xml:space="preserve"
   xmlns="http://www.w3.org/2000/svg"
   xmlns:svg="http://www.w3.org/2000/svg"><defs
     id="defs1" /><g
     id="layer1"><path
       style="fill:#000000"
       d="m 65.815515,172.95686 c 0,-0.1441 2.937025,-4.51965 6.526722,-9.72343 3.589696,-5.20379 7.716566,-11.18784 9.170826,-13.29789 1.45425,-2.11006 4.20929,-6.09865 6.1223,-8.86354 1.91301,-2.7649 5.48728,-7.94412 7.94282,-11.50938 2.45554,-3.56526 6.564407,-9.51838 9.130817,-13.22917 5.35224,-7.73882 13.86971,-20.081478 18.25847,-26.458328 1.65251,-2.40109 3.46294,-4.9907 4.02319,-5.75468 l 1.01862,-1.38907 h 29.34479 c 16.13964,0 29.39919,0.0893 29.46568,0.19844 0.0665,0.10914 -2.12285,3.47266 -4.8652,7.47448 -4.09295,5.97271 -5.40684,7.68137 -7.33499,9.53888 -2.6004,2.505118 -5.43713,4.333348 -8.6441,5.570998 -3.87409,1.49511 -4.92892,1.61165 -16.20945,1.7909 l -10.37346,0.16484 -3.39573,4.89479 c -1.86765,2.69214 -6.495,9.35964 -10.283,14.81667 -3.788,5.45703 -10.56047,15.22016 -15.04993,21.69583 -4.48945,6.47568 -8.79988,12.62706 -9.57872,13.66974 -4.062547,5.4388 -10.089407,9.04536 -17.145697,10.26025 -2.80015,0.48211 -18.123958,0.60866 -18.123958,0.14967 z M 54.228227,170.84473 C 44.70059,165.62467 40.952221,153.47398 45.86612,143.73817 46.374608,142.73072 56.628647,127.84791 68.652875,110.66526 80.677103,93.482612 94.676253,73.470962 99.762093,66.194922 c 5.085837,-7.27604 9.712137,-13.85425 10.280647,-14.61823 l 1.03366,-1.38906 h 48.67476 c 27.93714,0 48.67476,0.0994 48.67476,0.23339 0,0.30521 -8.65233,13.19195 -10.16565,15.14068 -2.10162,2.70628 -5.56576,5.22425 -9.16213,6.65963 -3.94315,1.5738 -2.52704,1.51421 -35.98489,1.51421 h -30.67359 l -0.7402,1.02181 c -0.4071,0.562 -3.17605,4.61108 -6.15322,8.99796 -2.97716,4.38687 -7.69662,11.33869 -10.48768,15.44849 -2.79106,4.109798 -7.176117,10.567988 -9.744587,14.351528 -2.56846,3.78354 -6.97447,10.27245 -9.79113,14.41979 -6.15358,9.06073 -12.202101,17.97248 -21.818522,32.14687 -3.949063,5.82084 -7.381523,10.78739 -7.627689,11.03678 -0.422334,0.42788 -0.526575,0.41017 -1.848405,-0.31404 z m -3.561909,-56.42951 c -1.220741,-1.78263 -4.184553,-6.09864 -6.58625,-9.59114 -2.401696,-3.4925 -7.228389,-10.517188 -10.725984,-15.610408 -3.497595,-5.09323 -10.896362,-15.856 -16.441705,-23.91727 -5.545342,-8.06126 -10.0195962,-14.75853 -9.9427862,-14.88281 0.07681,-0.12428 4.2105172,-0.22526 9.1860182,-0.2244 13.013564,0.002 15.94646,0.53761 21.614072,3.94541 3.579648,2.15236 5.769926,4.69111 13.486521,15.63219 3.848768,5.45703 9.473015,13.41328 12.498327,17.68055 3.025312,4.26727 5.500568,7.93428 5.500568,8.14891 0,0.21463 -0.9923,1.72386 -2.205111,3.35383 -11.430927,15.362728 -13.941273,18.706288 -14.04468,18.706288 -0.0657,0 -1.11825,-1.45851 -2.33899,-3.24115 z"
       id="path1" /></g></svg>
